<?xml version="1.0" encoding="UTF-8"?>
<svg version="1.1" viewBox="0 0 1210 2048" width="2000" height="3383" xmlns="http://www.w3.org/2000/svg">
<path transform="translate(615,488)" d="m0 0h9l4 5 156 247 6 9 410 1 3 3v6l-14 22-36 57-15 24-14 22-168 266-15 24-14 22-180 285-15 24-14 22-84 133-9 14-4 3-5-1-7-10-252-399-15-24-14-22-276-437-15-24-1-1v-6l3-3h411l2-5 14-22 24-38 14-22 36-57 14-22 36-57 14-22zm-1 39-11 30-23 65-15 42-22 62-19 53-22 62-4 11 1 3 104 68 11 7h1v-403zm13 1v402l33-21 18-12 49-32 15-10 1-4-22-62-19-53-17-48-55-154-2-6zm-32 15m51 0 1 6 13 36 23 65 20 56 17 48 19 53 16 45 13 11 17 13 17 14 14 11 16 13 13 10 16 13 28 22 16 13 14 11 6 5 2-1-15-24-228-361-15-24-14-22-8-13zm-52 1-72 114-15 24-14 22-132 209-14 22-24 38-4 7 4-2 17-13 18-14 56-43 18-14 43-33 10-8 4-9 17-48 35-98 22-62 30-84 2-5zm-540 217 6 11 14 22 120 190 14 22 36 57 4 6 4-5 14-22 24-38 14-22 36-57 14-22 72-114 15-24 1-4zm745 0 2 5 180 285 11 17 3-1 13-21 14-22 156-247 9-14v-2zm-306 105-13 36-22 62-16 45-20 56 3 9 19 41 16 36 19 41 14 31 3-1 14-22 10-15 15-23 17-26 19-29 15-23 19-29 9-14v-97l-24-16-78-51-17-11zm253 0-17 11-29 19-52 34-21 14v97l15 27 14 24 14 25 14 24 15 27 14 24 14 25 8 13 2-1 22-56 21-53 22-56 8-20-1-8-20-56-16-45-20-56-5-13zm-270 8-12 10-12 9-39 30-18 14-30 23-18 14-43 33-6 5-11 18-14 22-15 24-2 3 1 5 11 17 12 19 14 22 48 76 8 12 2-1 19-54 19-53 23-65 15-42 22-62 15-42 13-36zm288 1 3 10 17 48 35 98 22 62 35 98 14 39h2l15-24 72-114 7-12-14-22-15-24-8-13-14-11-16-13-14-11-16-13-13-10-16-13-14-11-16-13-14-11-10-8-14-11-16-13-10-8zm-144 179-8 11-14 22-12 18-19 29-59 90-10 16-33 166v7l14 22 132 209 9 14 4-4 36-57 14-22 36-57 14-22 36-57 9-14-10-49-27-127-6-12-14-24-14-25-14-24-14-25-14-24-14-25-12-21-9-15zm196 6-11 27-20 51-30 76-12 30 2 12 32 152 2 1 11-18 16-25 72-114 4-6-1-8-48-135-15-42zm-400 23-7 18-15 43-15 42-17 48-3 8 1 5 15 24 14 22 60 95 5 8 2-3 31-155-5-12-16-35-16-36-15-32-16-36z" fill="#FDFDFD"/>
<path transform="translate(514,1919)" d="m0 0h75l4 17v5l-4-4-5-6v-2l-12-6-5-1-29-1v46l30-1 8-4 4-8h1v28l-3-4-4-5-5-2-31-1v45l36-1 8-4 9-10 6-9 1 4-6 24-2 2-3-2-73-1 3-3 5-3 1-2v-86l-5-3z" fill="#FDFDFD"/>
<path transform="translate(162,1948)" d="m0 0h8l14 3 4 2v75l-4 5-10 7-13 6-4 1h-12l-7-3-8-7-1-3 8-3 4-1 8 9 5 2h11l5-3 4-5 2-7 1-12-10 4-5 1h-11l-11-3-9-6-6-9-2-5-1-6v-8l3-12 7-10 8-6 10-4zm-7 3-9 3-5 5-4 6-2 7v13l3 11 6 9 8 7 10 3 9-1 6-5v-50l-6-5-8-3z" fill="#FDFDFD"/>
<path transform="translate(216,1911)" d="m0 0h2l-1 50 15-9 8-3 11-1 9 3 6 7 2 6 1 42 1 7 3 5h-17v-48l-3-9-4-4-10-2-10 3-11 7v44l2 5 5 4h-21l1-9v-86l-1-2-9 1 3-3z" fill="#FDFDFD"/>
<path transform="translate(710,1948)" d="m0 0h9l14 3 8 5 7 8 4 11v14l-3 10-6 9-8 6-10 4-6 1h-11l-11-2 1 20 2 7 4 4-9-1-15-3 4-4 1-4 1-79-9-2 1-2 21-4zm-1 2-10 2-2 2v54l5 4 11 4h11l8-4 4-5 3-9v-19l-4-13-6-8-6-5-10-3z" fill="#FDFDFD"/>
<path transform="translate(1181,1948)" d="m0 0 10 1 7 4 4 6 2 8 1 44 3 5 1 2h-17l-1-2v-49l-4-8-4-3-8-1-10 3-10 6h-2l1 48 4 6h-18v-64l-7-2v-2l10-1h10v12l13-8 9-4z" fill="#FDFDFD"/>
<path transform="translate(852,316)" d="m0 0 6 2 2 3-1 5-15 14-10 9-13 12-10 9-13 12-12 11-10 9-13 12-6 4-6-2-2-2 1-6 7-7 8-7 15-14 10-9 12-11 13-12 10-9 13-12 11-10z" fill="#FDFDFD"/>
<path transform="translate(381,314)" d="m0 0 7 1 8 8 8 7 15 14 8 7 15 14 10 9 13 12 12 11 10 9 1 4-2 4-2 1h-6l-8-7-13-12-24-22-10-9-13-12-12-11-20-18-1-6z" fill="#FDFDFD"/>
<path transform="translate(939,451)" d="m0 0h6l4 5-2 5-6 3-90 22-41 10-6-2-2-3 1-5 2-2 93-23z" fill="#FDFDFD"/>
<path transform="translate(295,451)" d="m0 0 9 1 126 31 5 2 2 3-1 5-4 3-11-2-118-29-10-3-2-2v-6z" fill="#FDFDFD"/>
<path transform="translate(531,235)" d="m0 0h5l4 5 18 61 17 58v7l-4 3h-5l-4-5-35-119v-7z" fill="#FDFDFD"/>
<path transform="translate(704,235)" d="m0 0 6 1 2 2v7l-24 82-11 38-4 4-7-1-2-2 1-10 25-85 9-31z" fill="#FDFDFD"/>
<path transform="translate(813,530)" d="m0 0h139l4 3v6l-4 3h-139l-4-3v-6z" fill="#FDFDFD"/>
<path transform="translate(287,530)" d="m0 0h140l3 3v6l-3 3h-140l-4-4 1-6z" fill="#FDFDFD"/>
<path transform="translate(903,379)" d="m0 0 7 1 2 3-1 6-18 10-27 14-22 12-29 15-22 12h-7l-3-3 1-7 28-15 25-13 22-12 33-17z" fill="#FDFDFD"/>
<path transform="translate(331,379)" d="m0 0 7 1 29 15 22 12 31 16 22 12 13 7 1 1v7l-3 2h-7l-22-12-31-16-22-12-31-16-12-7-1-6z" fill="#FDFDFD"/>
<path transform="translate(617,228)" d="m0 0 7 1 2 3v127l-4 4-7-1-2-3v-127z" fill="#FDFDFD"/>
<path transform="translate(781,269)" d="m0 0h7l3 3-1 7-15 23-11 18-36 57-6 9-7 1-4-4 1-6 15-24 14-22 12-19 15-24 11-17z" fill="#FDFDFD"/>
<path transform="translate(451,269)" d="m0 0h7l7 9 11 18 14 22 36 57 2 3-1 7-3 2-6-1-3-3-60-95-7-11v-5z" fill="#FDFDFD"/>
<path transform="translate(3,1919)" d="m0 0h35v1l-10 3-1 2-1 90 31-1 10-4 8-8 7-11 1 3-7 27-4-2-70-1 1-2 8-4 1-2v-85l-3-3-6-2z" fill="#FDFDFD"/>
<path transform="translate(387,1948)" d="m0 0 14 1 10 4 10 9 4 8 2 7v13l-4 12-9 10-12 6-6 1h-11l-13-4-8-6-6-8-3-7-1-6v-9l3-11 6-9 8-6 10-4zm-6 3-8 4-5 8-1 3v19l4 12 6 10 7 6 6 3h11l6-3 5-6 2-5 1-6v-8l-3-14-6-11-6-7-10-5z" fill="#FDFDFD"/>
<path transform="translate(1086,1948)" d="m0 0 13 1 10 4 8 6 6 9 2 6 1 10-2 12-5 10-9 8-10 4-5 1h-11l-9-2-9-5-8-8-4-9-1-4v-15l4-11 9-10 10-5zm-7 3-6 3-5 6-3 9v12l4 15 6 10 9 8 5 2h11l7-4 5-8 1-4v-16l-4-13-5-9-7-7-5-3-4-1z" fill="#FDFDFD"/>
<path transform="translate(479,1909)" d="m0 0h12l15 5 2 1-2 4-7 6-5-2-7-5-9-3h-8l-6 3-4 7-2 9-1 15h23v4h-23l1 57 3 5 5 2v1h-23l1-6v-57l-1-1-8-1v-4h10v-8l3-10 5-8 9-8 12-5z" fill="#FDFDFD"/>
<path transform="translate(852,1948)" d="m0 0 13 1 8 4 7 8 1 3v8l-5 6-4 1h-43l4 16 6 10 10 6 11 1 13-3 6-4h3l-5 6-8 5-12 3h-10l-9-2-8-4-6-5-5-8-2-6v-17l4-10 6-8 8-6 10-4zm-6 3-8 4-6 7-3 11v3h38l3-5-2-9-7-8-7-3z" fill="#FDFDFD"/>
<path transform="translate(981,1948)" d="m0 0 14 1 13 5 2 4-8 11-5-10-6-5-6-2h-11l-5 5-1 9 4 6 11 4 16 4 9 6 3 6v10l-4 8-6 5-7 3-5 1h-12l-12-3-9-5 6-12 2-1 4 9 7 6 11 3 9-1 5-5v-11l-2-4-8-4-17-4-8-4-6-7-1-3v-10l5-8 6-4z" fill="#FDFDFD"/>
<path transform="translate(916,1948)" d="m0 0 14 1 11 4 4 3-2 5-5 8h-2l-3-9-7-6-5-2h-12l-5 5v11l5 5 9 3 16 4 8 5 4 6v12l-4 7-6 5-7 3-5 1h-11l-13-3-8-5 1-4 5-9 2 2 4 8 5 4 7 3 10 1 7-3 3-6-1-9-5-5-10-3-12-3-10-6-4-6-1-3v-8l3-6 8-7z" fill="#FDFDFD"/>
<path transform="translate(603,1949)" d="m0 0h19l16 24 3 3 11-13 4-6-1-4-7-3v-1h22l-4 4-7 6-9 11-7 9 4 7 12 17 8 10 6 4v1h-19l-11-18-8-11-5 5-11 13-1 6 5 3 3 2h-22l12-12 9-11 7-9-5-9-11-15-7-8-6-4z" fill="#FDFDFD"/>
<path transform="translate(299,1926)" d="m0 0 3 1-1 22h16v4h-16v62h15l-3 2-10 3h-7l-7-3-1-80h-10l4-3z" fill="#FDFDFD"/>
<path transform="translate(156,530)" d="m0 0h88l4 4-1 6-3 2h-88l-4-4 1-6z" fill="#FDFDFD"/>
<path transform="translate(995,530)" d="m0 0h88l4 4-1 6-3 2h-88l-4-4 1-6z" fill="#FDFDFD"/>
<path transform="translate(219,319)" d="m0 0 6 1 22 12 31 16 18 10 2 2v6l-3 3h-6l-68-36-6-4-1-1 1-7z" fill="#FDFDFD"/>
<path transform="translate(1017,319)" d="m0 0 6 1 2 2v6l-5 4-29 15-22 12-19 10-7-1-2-2v-6l9-6 31-16 22-12z" fill="#FDFDFD"/>
<path transform="translate(386,165)" d="m0 0h6l6 7 15 24 24 38v5l-3 3h-7l-7-9-11-18-14-22-12-19v-6z" fill="#FDFDFD"/>
<path transform="translate(618,108)" d="m0 0 5 1 3 3v80l-4 4-7-1-2-3v-80z" fill="#FDFDFD"/>
<path transform="translate(847,165)" d="m0 0h6l4 5-2 6-15 23-11 18-14 22-3 3h-7l-3-4 1-5 13-21 24-38 6-8z" fill="#FDFDFD"/>
<path transform="translate(770,1949)" d="m0 0h10v14l6-8 5-4 4-2h12l2 2-10 16h-1l-1-9-7-1-6 5-3 7-1 5v35l3 7 1 2h-17v-64l-7-2v-2z" fill="#FDFDFD"/>
<path transform="translate(985,194)" d="m0 0 5 1 3 3v5l-9 9-8 7-15 14-8 7-14 13-7 1-4-3 1-7 15-14 12-11 10-9 13-12z" fill="#FDFDFD"/>
<path transform="translate(248,192)" d="m0 0 6 1 10 9 13 12 10 9 13 12 8 7 1 6-5 4-6-1-7-7-8-7-15-14-10-9-12-11-2-2v-6z" fill="#FDFDFD"/>
<path transform="translate(114,406)" d="m0 0 15 3 60 15 3 2 1 5-5 5-8-1-65-16-6-3-1-4 3-5z" fill="#FDFDFD"/>
<path transform="translate(484,68)" d="m0 0 5 2 2 2 19 65v5l-3 3h-7l-3-3-18-61-1-9 3-3z" fill="#FDFDFD"/>
<path transform="translate(1123,406)" d="m0 0 6 2 2 3-1 5-6 3-69 17-6-1-2-2v-6l3-3z" fill="#FDFDFD"/>
<path transform="translate(754,68)" d="m0 0 6 2 1 2-1 9-17 58-2 5-2 1h-7l-3-4 2-10 17-58 3-4z" fill="#FDFDFD"/>
<path transform="translate(1028,1949)" d="m0 0h10l1 63 1 4h2v2h-17v-64l-7-2v-2z" fill="#FDFDFD"/>
<path transform="translate(98,1949)" d="m0 0h10v61l4 8h-17v-65l-8-1 1-2z" fill="#FDFDFD"/>
<path transform="translate(914,259)" d="m0 0 6 1 2 2v6l-9 9-8 7-3 2-6-1-3-3 1-6 15-14z" fill="#FDFDFD"/>
<path transform="translate(318,257)" d="m0 0h6l10 9 9 8 1 4-3 5h-8l-7-7-8-7-4-5 2-6z" fill="#FDFDFD"/>
<path transform="translate(209,430)" d="m0 0 9 1 17 4 5 4v5l-3 3h-8l-20-5-4-4 1-6z" fill="#FDFDFD"/>
<path transform="translate(507,157)" d="m0 0h6l4 4 6 21-2 5-3 2-6-1-3-5-5-17v-6z" fill="#FDFDFD"/>
<path transform="translate(1025,430)" d="m0 0 7 1 2 3-1 6-7 3-16 4h-8l-3-4 1-5 5-3z" fill="#FDFDFD"/>
<path transform="translate(726,157)" d="m0 0h6l3 3v7l-6 19-4 3-6-1-3-5 6-21 2-4z" fill="#FDFDFD"/>
<path transform="translate(194,143)" d="m0 0 7 1 6 6-1 7-4 2-5-1-6-5-1-6z" fill="#FDFDFD"/>
<path transform="translate(976,442)" d="m0 0h7l4 4-1 5-5 3-9 1-4-4 1-6z" fill="#FDFDFD"/>
<path transform="translate(714,200)" d="m0 0 6 1 3 4-2 9-3 3h-6l-4-4 1-7 3-5z" fill="#FDFDFD"/>
<path transform="translate(256,442)" d="m0 0h7l7 3 1 6-4 4-9-1-5-3-1-4 2-4z" fill="#FDFDFD"/>
<path transform="translate(1160,397)" d="m0 0 6 2 1 7-3 3-10 2-4-2-1-7 3-3z" fill="#FDFDFD"/>
<path transform="translate(878,291)" d="m0 0h6l3 3 1 4-7 8h-7l-3-2v-7z" fill="#FDFDFD"/>
<path transform="translate(1039,145)" d="m0 0 6 2 2 5-3 5-6 4-6-1-2-2v-6l6-6z" fill="#FDFDFD"/>
<path transform="translate(762,35)" d="m0 0 7 1 2 2-1 9-5 5-6-1-2-2v-7l3-6z" fill="#FDFDFD"/>
<path transform="translate(77,397)" d="m0 0 10 2 3 3-1 7-4 2-10-2-3-3 1-7z" fill="#FDFDFD"/>
<path transform="translate(38,389)" d="m0 0h9l6 3 1 5-5 5-11-2-3-4 1-5z" fill="#FDFDFD"/>
<path transform="translate(352,289)" d="m0 0h7l6 5 1 7-3 3h-6l-8-7 1-6z" fill="#FDFDFD"/>
<path transform="translate(521,200)" d="m0 0 6 1 3 5 1 7-4 4-7-1-3-5v-8z" fill="#FDFDFD"/>
<path transform="translate(220,168)" d="m0 0h7l7 7-1 6-3 2h-6l-6-5-1-7z" fill="#FDFDFD"/>
<path transform="translate(472,35)" d="m0 0 7 1 3 6v7l-4 3-6-1-3-4-1-8z" fill="#FDFDFD"/>
<path transform="translate(1010,170)" d="m0 0h6l4 4-1 5-6 6h-7l-3-3 1-7z" fill="#FDFDFD"/>
<path transform="translate(771,2)" d="m0 0h7l3 3-1 8-2 4-2 1h-6l-3-2-1-4 3-9z" fill="#FDFDFD"/>
<path transform="translate(1192,389)" d="m0 0h9l3 3-1 6-5 3-7 1-5-3v-6l3-3z" fill="#FDFDFD"/>
<path transform="translate(461,2)" d="m0 0h7l3 3 2 9-4 4h-6l-4-5-1-7z" fill="#FDFDFD"/>
<path transform="translate(1027,1918)" d="m0 0h7l4 4v7l-5 4-6-1-3-3-1-6z" fill="#FDFDFD"/>
<path transform="translate(97,1918)" d="m0 0h7l4 5-1 6-3 3-6 1-5-4v-7z" fill="#FDFDFD"/>
<path transform="translate(797,1967)" d="m0 0" fill="#FDFDFD"/>
</svg>
